<svg width="61" height="46" fill="none" xmlns="http://www.w3.org/2000/svg"><path d="M1.395 46l-.407-5.385c-.143-1.855-.284-3.712-.425-5.57-.118-1.543-.233-3.087-.346-4.63L0 27.524v-.201l4.511-.72c.198 4.538.392 9.065.582 13.58.158.03.204-.036.212-.183.109-2.095.22-4.189.336-6.281.13-2.434.264-4.868.403-7.303a.398.398 0 0 1 .016-.063l6.446-1.031.755 13.556.194-.015c.194-4.598.388-9.184.593-13.788l4.525-.726c-.029.417-.056.819-.085 1.22-.093 1.247-.186 2.494-.277 3.74-.108 1.436-.214 2.872-.319 4.308l-.271 3.702a2528.23 2528.23 0 0 1-.315 4.253c-.042.572-.087 1.146-.12 1.718 0 .144-.056.19-.194.21-1.94.307-3.88.617-5.821.932l-1.164.18L9.38 31.05l-.194.02-.664 13.783-1.467.237-5.084.803c-.16.026-.32.066-.48.098l-.096.01zM61 29.242c-.049.402-.086.79-.148 1.178-.049.28-.114.556-.194.827-.308 1.076-1.084 1.634-2.057 1.973-.762.233-1.542.398-2.332.494l-.551.09v3.522l-4.657.745V19.168l1.219-.2c1.626-.262 3.254-.521 4.884-.78a5.94 5.94 0 0 1 2.134-.02c.295.048.571.177.801.373.23.197.405.453.507.743.196.552.313 1.13.347 1.716 0 .093.023.185.035.28.01 2.653.013 5.308.012 7.962zm-5.272.572c.118-.018.22-.028.322-.05a.429.429 0 0 0 .304-.16.458.458 0 0 0 .101-.337v-6.328-.2a.342.342 0 0 0-.108-.278.317.317 0 0 0-.28-.074c-.114 0-.227.034-.345.052l.006 7.375zM23.828 23.503V31.2l.656-.102v-7.7l4.647-.745V41.54l-4.641.742V35.14l-.654.102v7.149l-4.657.744V24.247l4.649-.744zM31.999 12.24V6.896c0-.652.106-1.3.314-1.915.388-1.12 1.164-1.858 2.164-2.378a8.58 8.58 0 0 1 2.91-.84 6.354 6.354 0 0 1 2.205.051c1.371.311 2.134 1.176 2.303 2.63.048.387.072.778.074 1.17v10.138a6.582 6.582 0 0 1-.332 2.196c-.412 1.174-1.242 1.934-2.311 2.426a8.418 8.418 0 0 1-4.595.747c-.813-.097-1.552-.388-2.072-1.104a3.599 3.599 0 0 1-.61-1.806c-.033-.332-.04-.667-.042-1.004v-4.983l-.008.016zm5.32-.845V6.382a1.788 1.788 0 0 0 0-.227c-.017-.148-.05-.293-.227-.323a.33.33 0 0 0-.24.048.35.35 0 0 0-.148.203 1.567 1.567 0 0 0-.044.401V16.52a1.454 1.454 0 0 0 0 .227c.02.148.052.293.235.315.08.012.16-.006.228-.05a.346.346 0 0 0 .142-.193c.033-.122.049-.247.047-.373.006-1.69.009-3.376.007-5.058v.008zM21.37 13.894V8.549a5.614 5.614 0 0 1 .418-2.177c.44-1.05 1.237-1.726 2.213-2.184a8.665 8.665 0 0 1 4.462-.792c.31.033.615.1.91.2 1.095.348 1.66 1.17 1.854 2.292.072.416.11.838.112 1.26.008 3.444.008 6.887 0 10.328.01.722-.1 1.44-.328 2.121-.374 1.084-1.12 1.806-2.088 2.328a8.399 8.399 0 0 1-3.032.873 6.29 6.29 0 0 1-2.15-.068c-1.359-.315-2.102-1.132-2.296-2.569a9.031 9.031 0 0 1-.078-1.168c-.01-1.7 0-3.4 0-5.097l.002-.002zm5.318-.821V8.056a1.82 1.82 0 0 0 0-.23c-.017-.148-.05-.29-.227-.32a.332.332 0 0 0-.241.049.353.353 0 0 0-.147.204 1.58 1.58 0 0 0-.043.401v10.035a1.788 1.788 0 0 0 0 .226c.022.149.056.291.237.311a.325.325 0 0 0 .24-.058.346.346 0 0 0 .134-.213c.033-.121.048-.247.045-.373.004-1.67.005-3.341.002-5.015zM40.428 30.284V25.17a6.499 6.499 0 0 1 .318-2.142c.388-1.122 1.164-1.86 2.16-2.382a8.524 8.524 0 0 1 2.91-.843 6.355 6.355 0 0 1 2.205.05c1.358.305 2.134 1.17 2.309 2.623.047.388.072.779.073 1.17v10.157c.015.747-.099 1.49-.335 2.196-.41 1.158-1.229 1.914-2.284 2.408a8.413 8.413 0 0 1-4.643.765c-.813-.099-1.553-.402-2.069-1.112a3.634 3.634 0 0 1-.6-1.764 9.995 9.995 0 0 1-.044-.966c-.003-1.681-.003-3.363 0-5.045zm4.657-.759v5.006a2.2 2.2 0 0 0 0 .226c.017.155.044.31.236.334a.33.33 0 0 0 .249-.058.352.352 0 0 0 .14-.22 1.62 1.62 0 0 0 .035-.375V24.43a1.75 1.75 0 0 0 0-.227c-.018-.148-.049-.293-.227-.323a.329.329 0 0 0-.241.046.349.349 0 0 0-.148.203c-.03.122-.045.247-.042.373 0 1.677.001 3.351.004 5.023h-.006zM29.8 31.98v-5.345a5.648 5.648 0 0 1 .418-2.177c.438-1.05 1.236-1.726 2.214-2.183a8.666 8.666 0 0 1 4.462-.803c.31.033.616.1.912.2 1.093.348 1.66 1.168 1.854 2.29.073.423.11.851.112 1.28.008 3.43.008 6.86 0 10.29.012.728-.099 1.452-.328 2.14-.374 1.085-1.12 1.816-2.086 2.33a8.4 8.4 0 0 1-3.033.872 6.292 6.292 0 0 1-2.15-.066c-1.358-.317-2.103-1.134-2.297-2.569a9.016 9.016 0 0 1-.08-1.168v-5.097l.002.006zm5.319-.841v-5.003a2.2 2.2 0 0 0 0-.227c-.02-.148-.05-.293-.227-.323a.33.33 0 0 0-.24.047.35.35 0 0 0-.148.202 1.58 1.58 0 0 0-.043.401v10.035a1.788 1.788 0 0 0 0 .226c.022.149.055.291.235.313a.328.328 0 0 0 .23-.049.348.348 0 0 0 .143-.191c.031-.122.046-.248.044-.374.004-1.688.006-3.374.006-5.057zM47.293 15.718v3.514l-4.657.745V1.084L44.314.81C45.793.574 47.27.335 48.748.104a5.98 5.98 0 0 1 2.113-.02c.304.05.588.184.823.388.235.205.412.472.51.772.192.534.301 1.095.324 1.664.031.568.04 1.136.041 1.704v6.067a9.23 9.23 0 0 1-.281 2.304c-.107.446-.316.86-.61 1.204a2.768 2.768 0 0 1-1.078.778 9.043 9.043 0 0 1-2.265.588l-1.032.165zm0-11.355v7.365c.105-.016.194-.026.297-.044a.435.435 0 0 0 .323-.16.467.467 0 0 0 .106-.356V4.937c0-.636-.086-.71-.69-.602a.21.21 0 0 0-.03.028h-.006zM.221 19.802l4.463-.714V21.786c0 .171.054.316.245.346a.355.355 0 0 0 .246-.052.376.376 0 0 0 .155-.205c.03-.11.046-.223.045-.337v-2.065a.84.84 0 0 0-.121-.518.794.794 0 0 0-.405-.331c-.416-.147-.84-.268-1.269-.363a10.316 10.316 0 0 1-1.791-.602C.899 17.257.456 16.515.26 15.576a2.3 2.3 0 0 1-.054-.432c0-1.387-.126-2.781.083-4.16C.545 9.288 1.506 8.15 3.025 7.52a8.608 8.608 0 0 1 4.09-.65C8.627 7 9.625 7.983 9.82 9.565c.053.502.08 1.006.078 1.511.012.727 0 1.453 0 2.208l-4.467.72V11.48a1.759 1.759 0 0 0 0-.227c-.02-.143-.06-.275-.221-.313a.354.354 0 0 0-.226.034.371.371 0 0 0-.162.166c-.046.123-.07.254-.07.386v2.047a.905.905 0 0 0 .13.553c.1.164.252.29.429.356.29.117.59.209.896.273a12.05 12.05 0 0 1 2.084.638c.862.353 1.341 1.023 1.553 1.918.07.302.106.61.11.92.014.965.02 1.932 0 2.9-.021 1.095-.262 2.127-.931 3.01a4.752 4.752 0 0 1-2.367 1.606 8.757 8.757 0 0 1-3.353.49 4.516 4.516 0 0 1-1.13-.214C1.087 25.67.528 24.833.324 23.72a7.368 7.368 0 0 1-.11-1.187c-.002-.899.007-1.802.007-2.731zM15.985 16.998l4.641-.744c0 .06.014.106.014.154v3.033a5.606 5.606 0 0 1-.448 2.245c-.454 1.032-1.254 1.692-2.218 2.16a8.62 8.62 0 0 1-2.93.769c-.647.079-1.301.055-1.94-.07-1.37-.29-2.158-1.143-2.362-2.58a6.963 6.963 0 0 1-.078-.98v-10.67c-.007-.753.135-1.5.418-2.195.442-1.058 1.243-1.736 2.229-2.194a8.665 8.665 0 0 1 4.444-.788c.31.032.615.1.911.2 1.093.348 1.66 1.168 1.855 2.29.07.392.106.788.111 1.186.016.98 0 1.959 0 2.938v.15l-4.647.74V9.775a1.723 1.723 0 0 0 0-.247c-.021-.137-.064-.265-.223-.283a.305.305 0 0 0-.216.032.322.322 0 0 0-.143.168 1.43 1.43 0 0 0-.076.424V19.97c-.001.094.005.189.018.283.02.132.075.246.22.264a.292.292 0 0 0 .199-.028.306.306 0 0 0 .137-.15c.053-.133.081-.276.082-.42v-2.69l.002-.232z" fill="#CFCFCF"></path></svg>